<svg xmlns="http://www.w3.org/2000/svg" viewBox="0 0 219.48 399"><defs><style>.cls-1{fill:#6baddf;fill-rule:evenodd;}</style></defs><g id="Layer_2" data-name="Layer 2"><g id="svg10"><path id="path2" class="cls-1" d="M154.54,83.23H0L.15,253.71c.07,74.75,55.14,136.78,125.13,144.42l.82-176.07h0A12,12,0,0,1,138,210.12l16-.13.05-13.32a56.06,56.06,0,0,1-34.7-51.82h0v0h0a55.89,55.89,0,0,1,16.39-39.65c.24-.24.48-.46.74-.68a55.82,55.82,0,0,1,18-11.68Zm20.87,17.53a44.07,44.07,0,1,1-44.07,44.07,44.08,44.08,0,0,1,44.07-44.07ZM217.63,399V221.43l-79.54.68L137.26,399Z"/><path id="path4" class="cls-1" d="M42.39,49.85h-2.1L28.56,16,17.62,49.85H15.51L0,0H7l9.87,34.34L27.66,0H30L40.69,34.27,50.72,0h7Zm22-.67V0h6.71V49.18Z"/></g></g></svg>